# xmcd
#
# Track frame offsets:
#	150
#	20642
#	33717
#	48797
#	92330
#	111432
#	131252
#	154332
#	159230
#
# Disc length: 2356 seconds
#
# Revision: 1
# Processed by: cddbd v1.5.1PL0 Copyright (c) Steve Scherf et al.
# Submitted via: audiograbber 1.83.01
#
DISCID=68093209
DTITLE=Carl Carlton and The Songdogs - Cahoots and Roots CD2
DYEAR=2004
DGENRE=Rock
TTITLE0=Instant Karma
TTITLE1=Mama Talk To Your Daughter
TTITLE2=Why Get Up
TTITLE3=Bobby's Soul Serenade
TTITLE4=He Gave The Names
TTITLE5=From 4 Till Late
TTITLE6=Slow Down
TTITLE7=Carlypso
TTITLE8=Instant Karma (Radio Edit)
EXTD=
EXTT0=
EXTT1=
EXTT2=
EXTT3=
EXTT4=
EXTT5=
EXTT6=
EXTT7=
EXTT8=
PLAYORDER=
